<svg width="24" height="25" viewBox="0 0 24 25" fill="none" xmlns="http://www.w3.org/2000/svg">
<path d="M13 10.1279H7C6.59 10.1279 6.25 9.78793 6.25 9.37793C6.25 8.96793 6.59 8.62793 7 8.62793H13C13.41 8.62793 13.75 8.96793 13.75 9.37793C13.75 9.78793 13.41 10.1279 13 10.1279Z" fill="white"/>
<path d="M19.0399 15.1781C17.5299 15.1781 16.2499 14.0581 16.1299 12.6181C16.0499 11.7881 16.3499 10.9781 16.9499 10.3881C17.4499 9.86811 18.1599 9.57812 18.9099 9.57812H20.9999C21.9899 9.60812 22.7499 10.3881 22.7499 11.3481V13.4081C22.7499 14.3681 21.9899 15.1481 21.0299 15.1781H19.0399ZM20.9699 11.0781H18.9199C18.5699 11.0781 18.2499 11.2081 18.0199 11.4481C17.7299 11.7281 17.5899 12.1081 17.6299 12.4881C17.6799 13.1481 18.3199 13.6781 19.0399 13.6781H20.9999C21.1299 13.6781 21.2499 13.5581 21.2499 13.4081V11.3481C21.2499 11.1981 21.1299 11.0881 20.9699 11.0781Z" fill="white"/>
<path d="M16 21.6279H7C3.56 21.6279 1.25 19.3179 1.25 15.8779V8.87793C1.25 5.79793 3.14998 3.56794 6.09998 3.19794C6.36998 3.15794 6.68 3.12793 7 3.12793H16C16.24 3.12793 16.55 3.13793 16.87 3.18793C19.82 3.52793 21.75 5.76793 21.75 8.87793V10.3279C21.75 10.7379 21.41 11.0779 21 11.0779H18.92C18.57 11.0779 18.25 11.2079 18.02 11.4479L18.01 11.4579C17.73 11.7279 17.6 12.0979 17.63 12.4779C17.68 13.1379 18.32 13.6679 19.04 13.6679H21C21.41 13.6679 21.75 14.0079 21.75 14.4179V15.8679C21.75 19.3179 19.44 21.6279 16 21.6279ZM7 4.62793C6.76 4.62793 6.52999 4.64792 6.29999 4.67792C4.09999 4.95792 2.75 6.55793 2.75 8.87793V15.8779C2.75 18.4579 4.42 20.1279 7 20.1279H16C18.58 20.1279 20.25 18.4579 20.25 15.8779V15.1779H19.04C17.53 15.1779 16.25 14.0579 16.13 12.6179C16.05 11.7979 16.35 10.9779 16.95 10.3979C17.47 9.86795 18.17 9.57794 18.92 9.57794H20.25V8.87793C20.25 6.53793 18.88 4.92791 16.66 4.66791C16.42 4.62791 16.21 4.62793 16 4.62793H7Z" fill="white"/>
</svg>
