<?xml version="1.0" standalone="no"?>
<!DOCTYPE svg PUBLIC "-//W3C//DTD SVG 20010904//EN"
 "http://www.w3.org/TR/2001/REC-SVG-20010904/DTD/svg10.dtd">
<svg version="1.0" xmlns="http://www.w3.org/2000/svg"
 width="600.000000pt" height="265.000000pt" viewBox="0 0 600.000000 265.000000"
 preserveAspectRatio="xMidYMid meet">

<g transform="translate(0.000000,265.000000) scale(0.100000,-0.100000)"
fill="#fff" stroke="none">
<path d="M2941 2464 c-154 -33 -361 -126 -424 -191 -18 -18 -37 -33 -42 -33
-6 0 -22 -12 -36 -27 -15 -16 -47 -48 -74 -72 -59 -56 -136 -164 -185 -261
-184 -368 -145 -814 101 -1140 102 -135 153 -163 173 -93 8 29 5 37 -30 79
-115 136 -181 261 -226 424 -19 72 -23 109 -23 245 0 137 4 172 24 245 41 147
108 277 205 394 45 54 175 169 231 204 55 33 200 91 285 114 110 29 293 35
409 14 110 -21 283 -88 366 -143 83 -56 195 -162 252 -239 51 -69 83 -82 116
-46 24 26 22 31 -28 100 -50 68 -182 202 -200 202 -4 0 -28 18 -52 41 -51 46
-230 137 -286 144 -20 3 -65 14 -100 26 -51 18 -90 22 -227 24 -113 2 -185 -1
-229 -11z"/>
<path d="M3075 2283 c-33 -7 -70 -10 -82 -8 -13 3 -23 2 -23 -3 0 -5 -26 -14
-57 -21 -32 -7 -76 -21 -98 -31 -22 -10 -65 -29 -95 -42 -73 -33 -198 -134
-255 -206 -302 -379 -277 -891 58 -1221 56 -55 69 -63 92 -57 30 8 47 43 33
70 -6 10 -25 32 -44 48 -85 74 -185 244 -220 373 -25 93 -30 266 -9 366 51
254 219 464 459 574 105 48 170 60 326 60 138 0 149 -2 240 -33 136 -47 221
-101 320 -201 90 -91 136 -160 177 -263 32 -79 39 -88 72 -88 67 0 66 46 -4
186 -79 158 -223 318 -338 376 -128 65 -270 110 -387 124 -25 3 -47 6 -50 6
-3 1 -13 -2 -24 -7 -10 -4 -21 -4 -25 1 -3 6 -30 4 -66 -3z"/>
<path d="M3105 2099 c-11 -4 -39 -8 -62 -8 -23 -1 -44 -5 -48 -11 -3 -5 -12
-7 -20 -4 -8 3 -49 -11 -92 -31 -43 -21 -94 -45 -112 -54 -55 -26 -184 -158
-229 -236 -165 -287 -120 -637 113 -870 111 -111 186 -141 201 -81 9 38 -3 58
-57 95 -107 73 -199 208 -234 346 -20 77 -19 221 1 299 38 149 140 285 278
370 244 152 578 98 774 -126 49 -55 97 -140 116 -205 36 -120 45 -131 91 -113
35 13 39 31 25 92 -30 125 -113 263 -218 359 -123 113 -261 171 -407 173 -49
1 -92 4 -95 7 -3 4 -14 3 -25 -2z"/>
<path d="M3217 1902 c-20 -22 -22 -55 -4 -70 7 -6 41 -20 75 -31 189 -58 312
-225 312 -423 0 -136 -76 -283 -185 -355 -27 -18 -55 -37 -61 -42 -22 -18 -50
-29 -75 -29 -15 0 -49 -4 -75 -10 -59 -13 -82 -13 -109 -2 -11 5 -43 16 -72
25 -29 9 -82 36 -120 61 -37 24 -71 44 -75 44 -15 0 -48 -40 -48 -59 0 -38
119 -118 224 -150 189 -58 411 2 549 148 105 112 149 223 149 381 1 234 -160
445 -391 514 -69 20 -74 20 -94 -2z"/>
<path d="M3330 1690 c-30 -30 -25 -51 24 -99 59 -58 89 -128 89 -211 1 -155
-113 -271 -281 -285 -105 -9 -237 87 -268 194 -25 90 -36 106 -71 109 -45 4
-58 -23 -44 -89 18 -82 57 -152 116 -208 69 -65 139 -97 230 -106 166 -15 312
70 388 225 29 59 32 73 32 160 0 83 -4 102 -28 154 -33 72 -88 141 -127 161
-37 19 -36 19 -60 -5z"/>
<path d="M3275 1506 c-15 -22 -15 -27 -1 -55 22 -41 20 -99 -4 -138 -25 -42
-93 -75 -137 -67 -43 8 -91 63 -99 114 -9 52 -36 77 -72 64 -58 -20 -34 -142
42 -212 115 -106 295 -74 364 64 29 59 34 91 22 150 -20 94 -79 135 -115 80z"/>
<path d="M1252 413 c2 -106 6 -147 16 -151 9 -3 12 31 12 147 0 129 -2 151
-15 151 -13 0 -15 -21 -13 -147z"/>
<path d="M2240 503 c0 -44 -3 -54 -12 -45 -18 18 -56 14 -78 -8 -16 -16 -20
-33 -20 -80 0 -52 4 -65 25 -86 25 -25 33 -25 83 -7 6 3 12 0 12 -6 0 -6 5
-11 10 -11 6 0 10 57 10 150 0 127 -2 150 -15 150 -12 0 -15 -13 -15 -57z m-2
-126 c3 -65 -9 -90 -42 -85 -29 4 -48 45 -41 92 8 53 12 58 48 54 31 -3 32 -4
35 -61z"/>
<path d="M3300 505 c0 -52 -1 -55 -19 -45 -51 27 -90 -3 -98 -74 -10 -82 37
-143 88 -115 14 7 24 7 33 0 7 -6 16 -8 19 -4 4 3 7 71 7 150 0 120 -2 143
-15 143 -12 0 -15 -13 -15 -55z m-6 -81 c10 -27 6 -110 -6 -122 -17 -17 -44
-15 -62 4 -19 19 -22 104 -4 122 17 17 65 15 72 -4z"/>
<path d="M2642 534 c4 -21 22 -23 26 -1 2 10 -3 17 -13 17 -10 0 -15 -6 -13
-16z"/>
<path d="M3662 534 c4 -21 22 -23 26 -1 2 10 -3 17 -13 17 -10 0 -15 -6 -13
-16z"/>
<path d="M4607 543 c-12 -11 -8 -23 8 -23 8 0 15 7 15 15 0 16 -12 20 -23 8z"/>
<path d="M229 511 c-27 -27 -29 -35 -29 -101 0 -43 6 -82 15 -99 32 -63 130
-57 153 8 9 25 8 31 -3 31 -8 0 -20 -12 -27 -27 -17 -36 -59 -42 -87 -14 -17
17 -21 34 -21 89 0 84 17 115 63 110 25 -2 35 -10 46 -36 8 -18 20 -31 25 -29
18 6 6 51 -20 75 -35 31 -79 29 -115 -7z"/>
<path d="M830 495 c0 -16 -6 -25 -15 -25 -8 0 -15 -4 -15 -9 0 -5 7 -11 15
-15 11 -4 15 -23 15 -80 0 -72 13 -106 40 -106 18 0 22 23 6 32 -23 13 -24
158 -1 158 8 0 15 5 15 10 0 6 -7 10 -15 10 -9 0 -15 9 -15 25 0 16 -6 25 -15
25 -9 0 -15 -9 -15 -25z"/>
<path d="M2530 495 c0 -16 -6 -25 -15 -25 -8 0 -15 -4 -15 -9 0 -5 7 -11 15
-15 11 -4 15 -23 15 -80 0 -72 13 -106 40 -106 18 0 22 23 6 32 -22 13 -24
146 -1 154 8 4 15 10 15 15 0 5 -7 9 -15 9 -9 0 -15 9 -15 25 0 16 -6 25 -15
25 -9 0 -15 -9 -15 -25z"/>
<path d="M4490 495 c0 -16 -6 -25 -15 -25 -8 0 -15 -4 -15 -10 0 -5 7 -10 15
-10 12 0 15 -15 15 -79 0 -59 4 -84 16 -95 18 -19 30 -20 40 -5 4 7 -1 16 -10
21 -23 13 -24 158 -1 158 8 0 15 5 15 10 0 6 -7 10 -15 10 -9 0 -15 9 -15 25
0 16 -6 25 -15 25 -9 0 -15 -9 -15 -25z"/>
<path d="M5380 499 c0 -12 -8 -23 -20 -26 -11 -3 -20 -9 -20 -13 0 -4 9 -10
20 -13 18 -5 20 -14 20 -86 0 -70 2 -82 20 -91 21 -11 40 -6 40 11 0 5 -6 9
-14 9 -20 0 -26 23 -26 92 0 51 3 61 20 65 11 3 20 9 20 13 0 4 -9 10 -20 13
-12 3 -20 14 -20 26 0 12 -4 21 -10 21 -5 0 -10 -9 -10 -21z"/>
<path d="M445 445 c-20 -20 -25 -34 -25 -77 0 -29 6 -60 13 -69 33 -43 94 -46
122 -6 9 13 15 44 15 78 0 50 -3 60 -26 78 -35 28 -69 26 -99 -4z m95 -35 c21
-51 -2 -120 -41 -120 -31 0 -49 28 -49 79 0 54 12 71 51 71 20 0 30 -7 39 -30z"/>
<path d="M630 365 c0 -63 4 -105 10 -105 6 0 10 31 10 73 0 83 13 111 51 105
23 -3 24 -7 29 -87 3 -55 9 -86 18 -89 9 -3 12 19 12 86 0 73 -3 92 -18 105
-22 20 -53 22 -71 5 -11 -10 -14 -10 -18 0 -14 37 -23 0 -23 -93z"/>
<path d="M940 365 c0 -63 4 -105 10 -105 6 0 10 30 10 69 0 83 5 100 36 112
13 4 24 13 24 19 0 13 -16 13 -41 0 -13 -7 -19 -7 -19 0 0 5 -4 10 -10 10 -6
0 -10 -42 -10 -105z"/>
<path d="M1076 449 c-22 -17 -26 -28 -26 -74 0 -68 6 -82 42 -101 25 -13 35
-13 59 -3 39 15 49 37 49 99 0 41 -5 56 -25 75 -30 30 -64 32 -99 4z m84 -25
c8 -8 13 -35 13 -59 0 -50 -16 -75 -48 -75 -32 0 -50 27 -50 75 0 23 6 49 14
58 17 21 55 22 71 1z"/>
<path d="M1365 445 c-32 -31 -36 -120 -6 -156 21 -26 79 -32 105 -10 21 18 10
34 -14 21 -31 -17 -59 -11 -76 15 -28 43 -12 59 52 52 l56 -6 -5 42 c-9 68
-66 89 -112 42z m84 -24 c14 -25 5 -31 -41 -31 -30 0 -38 4 -38 18 0 25 9 32
41 32 17 0 32 -7 38 -19z"/>
<path d="M1620 324 c0 -112 3 -145 13 -142 6 3 13 25 15 51 3 51 4 52 32 37
51 -27 99 41 86 123 -11 67 -48 93 -97 67 -13 -7 -19 -7 -19 0 0 5 -7 10 -15
10 -13 0 -15 -23 -15 -146z m110 97 c35 -67 -21 -166 -68 -119 -13 13 -17 120
-5 131 14 15 63 7 73 -12z"/>
<path d="M1820 365 c0 -63 4 -105 10 -105 6 0 10 30 10 69 0 83 5 100 36 112
13 4 24 13 24 19 0 13 -16 13 -41 0 -13 -7 -19 -7 -19 0 0 5 -4 10 -10 10 -6
0 -10 -42 -10 -105z"/>
<path d="M1956 449 c-22 -17 -26 -28 -26 -74 0 -68 6 -82 42 -101 25 -13 35
-13 59 -3 39 15 49 37 49 99 0 41 -5 56 -25 75 -30 30 -64 32 -99 4z m84 -25
c8 -8 13 -35 13 -59 0 -50 -16 -75 -48 -75 -32 0 -50 27 -50 75 0 23 6 49 14
58 17 21 55 22 71 1z"/>
<path d="M2330 385 c0 -72 3 -88 21 -106 19 -19 29 -19 77 -2 6 3 12 0 12 -6
0 -6 5 -11 10 -11 6 0 10 42 10 105 0 63 -4 105 -10 105 -6 0 -10 -29 -10 -68
0 -77 -18 -115 -53 -110 -20 3 -22 10 -25 91 -2 68 -6 87 -17 87 -12 0 -15
-17 -15 -85z"/>
<path d="M2640 364 c0 -80 3 -105 13 -102 8 3 13 36 15 106 2 86 0 102 -13
102 -12 0 -15 -17 -15 -106z"/>
<path d="M2720 460 c0 -19 51 -184 60 -193 11 -13 20 6 46 101 27 98 28 102
15 102 -5 0 -17 -26 -26 -57 -28 -102 -29 -103 -51 -23 -11 41 -25 75 -32 78
-7 2 -12 -2 -12 -8z"/>
<path d="M2915 445 c-28 -27 -34 -94 -14 -139 15 -33 57 -50 92 -37 35 13 47
40 47 101 0 41 -5 56 -25 75 -13 14 -36 25 -50 25 -14 0 -37 -11 -50 -25z m94
-31 c25 -56 2 -124 -43 -124 -31 0 -47 20 -53 69 -5 33 -1 44 20 65 30 29 59
26 76 -10z"/>
<path d="M3402 447 c-29 -31 -31 -124 -3 -158 21 -26 79 -32 105 -10 24 20 10
31 -24 18 -37 -14 -61 -2 -71 36 l-7 27 59 0 59 0 0 35 c0 68 -73 100 -118 52z
m86 -34 c3 -21 -1 -23 -37 -23 -33 0 -41 4 -41 18 0 27 10 33 45 30 22 -2 31
-9 33 -25z"/>
<path d="M3662 368 c2 -70 7 -103 16 -106 9 -3 12 22 12 102 0 89 -3 106 -15
106 -13 0 -15 -16 -13 -102z"/>
<path d="M3752 368 c2 -70 7 -103 16 -106 9 -3 12 17 12 76 0 86 10 106 52
100 22 -3 23 -8 26 -91 2 -64 6 -87 15 -84 20 6 21 154 2 183 -17 26 -53 32
-74 12 -11 -10 -14 -10 -18 0 -3 6 -11 12 -19 12 -12 0 -14 -18 -12 -102z"/>
<path d="M3934 453 c14 -45 56 -187 56 -190 0 -2 4 -3 10 -3 7 0 70 181 70
204 0 3 -6 6 -13 6 -9 0 -21 -29 -32 -75 -11 -41 -22 -72 -26 -67 -3 4 -14 37
-24 75 -12 43 -23 67 -32 67 -9 0 -12 -6 -9 -17z"/>
<path d="M4132 447 c-29 -31 -31 -124 -3 -158 21 -26 79 -32 105 -10 24 20 10
31 -24 18 -37 -14 -61 -2 -71 36 l-7 27 59 0 59 0 0 35 c0 68 -73 100 -118 52z
m86 -34 c3 -21 -1 -23 -37 -23 -33 0 -41 4 -41 18 0 27 10 33 45 30 22 -2 31
-9 33 -25z"/>
<path d="M4316 451 c-28 -31 -16 -62 34 -91 53 -31 61 -63 18 -68 -19 -2 -31
3 -40 17 -12 19 -38 29 -38 15 0 -17 25 -46 47 -55 33 -12 80 5 88 32 11 33
-4 54 -50 77 -31 15 -45 28 -45 42 0 16 7 20 30 20 18 0 33 -6 36 -15 8 -19
24 -20 24 -1 0 43 -73 61 -104 27z"/>
<path d="M4600 364 c0 -80 3 -105 13 -102 8 3 13 36 15 106 2 86 0 102 -13
102 -12 0 -15 -17 -15 -106z"/>
<path d="M4690 364 c0 -67 4 -103 10 -99 6 3 10 39 10 79 0 59 4 76 19 90 24
22 57 13 65 -17 3 -12 6 -52 6 -89 0 -39 4 -68 10 -68 6 0 10 31 10 73 0 83
13 111 51 105 23 -3 24 -7 29 -87 3 -55 9 -86 18 -89 9 -3 12 19 12 86 0 73
-3 92 -18 105 -21 19 -45 21 -72 7 -13 -7 -27 -6 -44 2 -19 8 -32 8 -51 0 -15
-7 -27 -8 -30 -2 -18 28 -25 0 -25 -96z"/>
<path d="M5010 452 c-27 -22 -38 -98 -20 -141 16 -38 65 -57 104 -40 14 7 26
18 26 26 0 15 -16 17 -25 3 -18 -29 -85 5 -85 43 0 13 12 17 58 19 l57 3 -2
33 c-3 64 -64 94 -113 54z m84 -28 c11 -29 6 -34 -39 -34 -46 0 -58 13 -33 38
17 17 65 15 72 -4z"/>
<path d="M5172 368 c2 -70 7 -103 16 -106 9 -3 12 17 12 76 0 86 10 106 52
100 22 -3 23 -8 26 -91 2 -64 6 -87 15 -84 20 6 21 154 2 183 -17 26 -53 32
-74 12 -11 -10 -14 -10 -18 0 -3 6 -11 12 -19 12 -12 0 -14 -18 -12 -102z"/>
<path d="M5501 451 c-24 -24 -35 -78 -26 -119 14 -68 89 -88 133 -37 21 25 24
36 20 83 -4 42 -10 60 -28 74 -29 24 -75 23 -99 -1z m89 -30 c15 -30 12 -97
-6 -115 -36 -37 -84 -2 -84 62 0 49 16 72 50 72 19 0 33 -7 40 -19z"/>
<path d="M5696 451 c-28 -31 -16 -62 34 -91 53 -31 61 -63 18 -68 -19 -2 -31
3 -40 17 -12 19 -38 29 -38 15 0 -17 25 -46 47 -55 33 -12 80 5 88 32 11 33
-4 54 -50 77 -55 26 -64 62 -16 62 16 0 31 -6 35 -15 8 -22 26 -18 26 5 0 39
-74 54 -104 21z"/>
</g>
</svg>
