<svg width="46" height="40" viewBox="0 0 46 40" fill="none" xmlns="http://www.w3.org/2000/svg">
    <path d="M23.8797 6.41737C18.1323 6.81608 10.4926 7.8624 9.58848 7.98765C9.5225 7.99679 9.46832 8.00493 9.40329 8.01937C8.83049 8.14658 5.80972 8.98593 2.99992 13C-0.50005 18 2.49949 27.5 3.49978 28C3.95074 28.2254 5.01137 29.0606 6.40682 29.9099C9.40471 31.7344 11.9992 34.9905 11.9999 38.5C12 39 17.5 39 17.4999 38.5C17.4992 34.8225 20.3118 31.7407 23.9825 31.5161C26.5936 31.3564 29 31.2713 29 31.5V31.5025C29.0001 32.0133 29.0009 36.0025 29.5 37.5C29.8856 38.6569 32.353 38.0293 33.4618 37.6816C33.8238 37.5681 34.2355 37.4983 34.4756 37.2045C35.5146 35.9331 33.4495 31.3988 33.0001 30.5C32.5 29.5 37.9999 18 39.4999 18H41.7294C43.3281 18 44.6926 16.8442 44.9555 15.2672L44.972 15.1681C44.9906 15.0564 45 14.9432 45 14.8299C45 13.5929 43.9327 12.7315 42.7206 12.979C42.0187 13.1224 41.3855 13.1928 41 13C40.3576 12.6788 39.1114 12.4207 38.0412 11.2961C37.473 10.699 36.9633 10.0369 36.3142 9.52882C35.452 8.85384 34.7739 7.97237 34.3426 6.9659L34.0205 6.21436C33.6821 5.42478 33.6003 4.54886 33.7867 3.71028L34.161 2.0257C34.3591 1.13426 34.2599 0.993484 33.5001 1.5C30.5926 3.43814 27.3655 6.17554 23.8797 6.41737Z" fill="white" stroke="#3A6FF8"/>
    <circle cx="31.5" cy="15.5" r="1.5" fill="#3A6FF8"/>
</svg>
